<svg xmlns="http://www.w3.org/2000/svg" version="1.1" xmlns:xlink="http://www.w3.org/1999/xlink" xmlns:svgjs="http://svgjs.dev/svgjs" id="BgenPttrnSvgRootPreview" width="100%" height="100%"><defs><pattern x="0" y="0" width="1" height="1" patternUnits="userSpaceOnUse" id="BgenPttrnLayer1"><g id="PatternRootContent1"><g id="BgenPttrnLayer1background"><rect width="1" height="1" id="BgenPttrnBackground1" class="color_1 fill_color_1" fill="#de9ec2"></rect></g></g></pattern><pattern x="0" y="0" width="92" height="54" patternUnits="userSpaceOnUse" id="BgenPttrnLayer2" patternTransform="matrix(1,0,0,1,0,0)"><g id="PatternRootContent2"><g id="BgenPttrnLayer2Element2"><use xlink:href="#BgenPttrnElement2" x="61.236026763916016" y="-44.74092102050781" transform="translate(92, -13.5) scale(1) translate(-92, 13.5) rotate(90, 92, -13.5)"></use><use xlink:href="#BgenPttrnElement2" x="-30.763973236083984" y="-44.74092102050781" transform="translate(0, -13.5) scale(1) translate(0, 13.5) rotate(90, 0, -13.5)"></use><use xlink:href="#BgenPttrnElement2" x="15.236026763916016" y="-17.740921020507812" transform="translate(46, 13.5) scale(1) translate(-46, -13.5) rotate(90, 46, 13.5)"></use><use xlink:href="#BgenPttrnElement2" x="-76.76397323608398" y="-17.740921020507812" transform="translate(-46, 13.5) scale(1) translate(46, -13.5) rotate(90, -46, 13.5)"></use><use xlink:href="#BgenPttrnElement2" x="15.236026763916016" y="-71.74092102050781" transform="translate(46, -40.5) scale(1) translate(-46, 40.5) rotate(90, 46, -40.5)"></use><use xlink:href="#BgenPttrnElement2" x="107.23602676391602" y="-17.740921020507812" transform="translate(138, 13.5) scale(1) translate(-138, -13.5) rotate(90, 138, 13.5)"></use><use xlink:href="#BgenPttrnElement2" x="61.236026763916016" y="9.259078979492188" transform="translate(92, 40.5) scale(1) translate(-92, -40.5) rotate(90, 92, 40.5)"></use><use xlink:href="#BgenPttrnElement2" x="-30.763973236083984" y="9.259078979492188" transform="translate(0, 40.5) scale(1) translate(0, -40.5) rotate(90, 0, 40.5)"></use><use xlink:href="#BgenPttrnElement2" x="15.236026763916016" y="36.25907897949219" transform="translate(46, 67.5) scale(1) translate(-46, -67.5) rotate(90, 46, 67.5)"></use><use xlink:href="#BgenPttrnElement2" x="15.236026763916016" y="36.25907897949219" transform="translate(46, 67.5) scale(1) translate(-46, -67.5) rotate(90, 46, 67.5)"></use></g></g></pattern><symbol id="BgenPttrnElement2"><g class="color_3 fill_color_3" fill="#000000"><path d="M30.591,32.45199966430664c0.028,0.011,0.056,0.021,0.085,0.027c0.009,0.001,0.017,0.007,0.025,0.008c0.022,0.003,0.043,-0.003,0.065,-0.003c0.023,0,0.043,0.006,0.065,0.003c0.009,-0.001,0.017,-0.007,0.025,-0.008c0.029,-0.006,0.057,-0.017,0.085,-0.027c0.028,-0.011,0.057,-0.021,0.083,-0.037c0.022,-0.014,0.041,-0.031,0.061,-0.049c0.025,-0.022,0.049,-0.042,0.069,-0.067c0.016,-0.019,0.025,-0.04,0.037,-0.062c0.018,-0.032,0.036,-0.063,0.047,-0.099c0.002,-0.007,0.007,-0.012,0.009,-0.018c0.004,-0.009,1.086,-4.088,2.491,-8.494c1.378,-4.383,3.187,-9.177,4.297,-10.238c0.195,-0.195,0.195,-0.514,-0.002,-0.707c-0.194,-0.195,-0.512,-0.195,-0.706,0c-1.454,1.502,-3.102,6.185,-4.541,10.642c-0.578,1.814,-1.103,3.573,-1.521,5.019L31.265,0.5010000467300415c0,-0.277,-0.224,-0.501,-0.501,-0.501c-0.277,0,-0.501,0.224,-0.501,0.501l0,27.84c-0.418,-1.445,-0.942,-3.204,-1.521,-5.019c-1.438,-4.457,-3.087,-9.14,-4.541,-10.642c-0.194,-0.195,-0.512,-0.195,-0.706,0c-0.197,0.193,-0.197,0.512,-0.002,0.707c1.109,1.061,2.919,5.855,4.297,10.238c1.405,4.406,2.487,8.485,2.491,8.494c0.002,0.007,0.007,0.012,0.009,0.018c0.011,0.035,0.028,0.066,0.047,0.099c0.012,0.021,0.021,0.043,0.037,0.062c0.021,0.025,0.044,0.046,0.069,0.067c0.021,0.018,0.039,0.035,0.062,0.049C30.535,32.432,30.563,32.441,30.591,32.45199966430664Z" transform="matrix(1,0,0,1,0,0)"></path><path d="M29.629,31.696565628051758c0.004,0.03,0.009,0.059,0.019,0.087c0.004,0.008,0.002,0.018,0.006,0.026c0.008,0.021,0.024,0.036,0.035,0.055c0.011,0.02,0.016,0.04,0.03,0.058c0.005,0.007,0.015,0.011,0.019,0.018c0.02,0.022,0.043,0.041,0.066,0.06c0.024,0.019,0.047,0.039,0.074,0.053c0.023,0.012,0.047,0.02,0.073,0.028c0.032,0.011,0.061,0.021,0.093,0.026c0.024,0.004,0.047,0.002,0.072,0.001c0.037,0,0.073,0,0.109,-0.009c0.007,-0.002,0.014,0,0.02,-0.001c0.01,-0.001,4.083,-1.103,8.602,-2.09c4.485,-0.998,9.541,-1.828,11.015,-1.398c0.266,0.071,0.543,-0.088,0.611,-0.355c0.072,-0.266,-0.087,-0.541,-0.353,-0.611c-2.028,-0.508,-6.907,0.406,-11.487,1.388c-1.86,0.406,-3.646,0.831,-5.107,1.192L57.636,16.304765701293945c0.24,-0.139,0.322,-0.444,0.183,-0.684c-0.139,-0.24,-0.444,-0.322,-0.684,-0.183l-24.11,13.92c1.042,-1.084,2.304,-2.418,3.586,-3.827c3.141,-3.474,6.372,-7.243,6.946,-9.254c0.072,-0.266,-0.087,-0.541,-0.353,-0.611c-0.266,-0.074,-0.542,0.085,-0.613,0.352c-0.364,1.491,-3.611,5.455,-6.718,8.84c-3.113,3.42,-6.105,6.396,-6.111,6.404c-0.005,0.005,-0.007,0.012,-0.011,0.017c-0.025,0.027,-0.043,0.057,-0.062,0.09c-0.012,0.021,-0.027,0.04,-0.035,0.063c-0.011,0.031,-0.018,0.061,-0.024,0.093c-0.005,0.027,-0.011,0.051,-0.011,0.078C29.618,31.638,29.624,31.667,29.629,31.696565628051758Z" transform="matrix(1,0,0,1,0,0)"></path><path d="M29.802,30.48548698425293c-0.024,0.019,-0.046,0.038,-0.066,0.06c-0.005,0.007,-0.015,0.011,-0.019,0.018c-0.014,0.018,-0.019,0.039,-0.03,0.058c-0.011,0.02,-0.027,0.034,-0.035,0.055c-0.004,0.008,-0.002,0.018,-0.006,0.026c-0.009,0.028,-0.014,0.058,-0.019,0.087c-0.004,0.03,-0.01,0.06,-0.009,0.09c0.001,0.026,0.006,0.051,0.012,0.077c0.007,0.033,0.012,0.063,0.024,0.093c0.008,0.023,0.022,0.042,0.035,0.063c0.019,0.032,0.037,0.063,0.062,0.09c0.005,0.005,0.007,0.012,0.011,0.017c0.006,0.008,2.997,2.985,6.111,6.404c3.107,3.385,6.354,7.349,6.718,8.84c0.071,0.266,0.348,0.426,0.613,0.352c0.266,-0.071,0.425,-0.346,0.353,-0.611c-0.574,-2.01,-3.805,-5.779,-6.946,-9.254c-1.282,-1.408,-2.543,-2.742,-3.586,-3.827L57.135,47.0446891784668c0.24,0.139,0.546,0.057,0.684,-0.183c0.139,-0.24,0.057,-0.546,-0.183,-0.684l-24.11,-13.92c1.46,0.361,3.246,0.786,5.107,1.192c4.579,0.983,9.459,1.897,11.487,1.388c0.266,-0.071,0.425,-0.346,0.353,-0.611c-0.069,-0.267,-0.345,-0.427,-0.611,-0.355c-1.473,0.43,-6.53,-0.4,-11.015,-1.398c-4.518,-0.986,-8.592,-2.089,-8.602,-2.09c-0.007,-0.002,-0.014,0,-0.02,-0.001c-0.036,-0.008,-0.071,-0.009,-0.109,-0.009c-0.024,0,-0.048,-0.003,-0.072,0.001c-0.032,0.006,-0.062,0.015,-0.093,0.026c-0.026,0.009,-0.05,0.016,-0.073,0.029C29.847,30.447,29.825,30.467,29.802,30.48548698425293Z" transform="matrix(1,0,0,1,0,0)"></path><path d="M30.937,30.02984046936035c-0.028,-0.011,-0.056,-0.021,-0.085,-0.027c-0.009,-0.001,-0.017,-0.007,-0.025,-0.008c-0.022,-0.003,-0.043,0.003,-0.065,0.003c-0.023,0,-0.043,-0.006,-0.065,-0.003c-0.009,0.001,-0.017,0.007,-0.025,0.008c-0.029,0.006,-0.057,0.017,-0.085,0.027c-0.028,0.011,-0.057,0.021,-0.083,0.037c-0.022,0.014,-0.041,0.031,-0.061,0.049c-0.025,0.022,-0.049,0.042,-0.069,0.067c-0.016,0.019,-0.025,0.04,-0.037,0.062c-0.018,0.032,-0.036,0.063,-0.047,0.099c-0.002,0.007,-0.007,0.012,-0.009,0.018c-0.004,0.009,-1.086,4.088,-2.491,8.494c-1.378,4.383,-3.187,9.177,-4.297,10.238c-0.195,0.195,-0.195,0.514,0.002,0.707c0.194,0.195,0.512,0.195,0.706,0c1.454,-1.502,3.102,-6.185,4.541,-10.642c0.578,-1.814,1.103,-3.573,1.521,-5.019L30.263,61.980838775634766c0,0.277,0.224,0.501,0.501,0.501c0.277,0,0.501,-0.224,0.501,-0.501l0,-27.84c0.418,1.445,0.942,3.204,1.521,5.019c1.438,4.457,3.087,9.14,4.541,10.642c0.194,0.195,0.512,0.195,0.706,0c0.197,-0.193,0.197,-0.512,0.002,-0.707c-1.109,-1.061,-2.919,-5.855,-4.297,-10.238c-1.405,-4.406,-2.487,-8.485,-2.491,-8.494c-0.002,-0.007,-0.007,-0.012,-0.009,-0.018c-0.011,-0.035,-0.028,-0.066,-0.047,-0.099c-0.012,-0.021,-0.021,-0.043,-0.037,-0.062c-0.021,-0.025,-0.044,-0.046,-0.069,-0.067c-0.021,-0.018,-0.039,-0.035,-0.062,-0.049C30.993,30.05,30.965,30.041,30.937,30.02984046936035Z" transform="matrix(1,0,0,1,0,0)"></path><path d="M31.899,30.7852783203125c-0.004,-0.03,-0.009,-0.059,-0.019,-0.087c-0.004,-0.008,-0.002,-0.018,-0.006,-0.026c-0.008,-0.021,-0.024,-0.036,-0.035,-0.055c-0.011,-0.02,-0.016,-0.04,-0.03,-0.058c-0.005,-0.007,-0.015,-0.011,-0.019,-0.018c-0.02,-0.022,-0.043,-0.041,-0.066,-0.06c-0.024,-0.019,-0.047,-0.039,-0.074,-0.053c-0.023,-0.012,-0.047,-0.02,-0.073,-0.028c-0.032,-0.011,-0.061,-0.021,-0.093,-0.026c-0.024,-0.004,-0.047,-0.002,-0.072,-0.001c-0.037,0,-0.073,0,-0.109,0.009c-0.007,0.002,-0.014,0,-0.02,0.001c-0.01,0.001,-4.083,1.103,-8.602,2.09c-4.485,0.998,-9.541,1.828,-11.015,1.398c-0.266,-0.071,-0.543,0.088,-0.611,0.355c-0.072,0.266,0.087,0.541,0.353,0.611c2.028,0.508,6.907,-0.406,11.487,-1.388c1.86,-0.406,3.646,-0.831,5.107,-1.192L3.892,46.17707824707031c-0.24,0.139,-0.322,0.444,-0.183,0.684c0.139,0.24,0.444,0.322,0.684,0.183l24.11,-13.92c-1.042,1.084,-2.304,2.418,-3.586,3.827c-3.141,3.474,-6.372,7.243,-6.946,9.254c-0.072,0.266,0.087,0.541,0.353,0.611c0.266,0.074,0.542,-0.085,0.613,-0.352c0.364,-1.491,3.611,-5.455,6.718,-8.84c3.113,-3.42,6.105,-6.396,6.111,-6.404c0.005,-0.005,0.007,-0.012,0.011,-0.017c0.025,-0.027,0.043,-0.057,0.062,-0.09c0.012,-0.021,0.027,-0.04,0.035,-0.063c0.011,-0.031,0.018,-0.061,0.024,-0.093c0.005,-0.027,0.011,-0.051,0.011,-0.078C31.91,30.844,31.904,30.815,31.899,30.7852783203125Z" transform="matrix(1,0,0,1,0,0)"></path><path d="M31.726,31.996355056762695c0.024,-0.019,0.046,-0.038,0.066,-0.06c0.005,-0.007,0.015,-0.011,0.019,-0.018c0.014,-0.018,0.019,-0.039,0.03,-0.058c0.011,-0.02,0.027,-0.034,0.035,-0.055c0.004,-0.008,0.002,-0.018,0.006,-0.026c0.009,-0.028,0.014,-0.058,0.019,-0.087c0.004,-0.03,0.01,-0.06,0.009,-0.09c-0.001,-0.026,-0.006,-0.051,-0.012,-0.077c-0.007,-0.033,-0.012,-0.063,-0.024,-0.093c-0.008,-0.023,-0.022,-0.042,-0.035,-0.063c-0.019,-0.032,-0.037,-0.063,-0.062,-0.09c-0.005,-0.005,-0.007,-0.012,-0.011,-0.017c-0.006,-0.008,-2.997,-2.985,-6.111,-6.404c-3.107,-3.385,-6.354,-7.349,-6.718,-8.84c-0.071,-0.266,-0.348,-0.426,-0.613,-0.352c-0.266,0.071,-0.425,0.346,-0.353,0.611c0.574,2.01,3.805,5.779,6.946,9.254c1.282,1.408,2.543,2.742,3.586,3.827L4.393,15.437154769897461c-0.24,-0.139,-0.546,-0.057,-0.684,0.183c-0.139,0.24,-0.057,0.546,0.183,0.684l24.11,13.92c-1.46,-0.361,-3.246,-0.786,-5.107,-1.192c-4.579,-0.983,-9.459,-1.897,-11.487,-1.388c-0.266,0.071,-0.425,0.346,-0.353,0.611c0.069,0.267,0.345,0.427,0.611,0.355c1.473,-0.43,6.53,0.4,11.015,1.398c4.518,0.986,8.592,2.089,8.602,2.09c0.007,0.002,0.014,0,0.02,0.001c0.036,0.008,0.071,0.009,0.109,0.009c0.024,0,0.048,0.003,0.072,-0.001c0.032,-0.006,0.062,-0.015,0.093,-0.026c0.026,-0.009,0.05,-0.016,0.073,-0.029C31.681,32.035,31.703,32.015,31.726,31.996355056762695Z" transform="matrix(1,0,0,1,0,0)"></path></g></symbol></defs><rect width="100%" height="100%" id="BgenPttrnRctLayer1" fill="url(&quot;#BgenPttrnLayer1&quot;)"></rect><rect width="100%" height="100%" id="BgenPttrnRctLayer2" fill="url(&quot;#BgenPttrnLayer2&quot;)"></rect></svg>